<svg width="98" height="38" viewBox="0 0 98 38" fill="none" xmlns="http://www.w3.org/2000/svg" class="jss424"><mask id="mask0_2191_128614" maskUnits="userSpaceOnUse" x="0" y="-6" width="98" height="44" style="mask-type: luminance;"><path d="M98 -5.83887H0V37.9419H98V-5.83887Z" fill="white"></path></mask><g mask="url(#mask0_2191_128614)"><path d="M51.6563 4.67494C52.5502 6.08473 53.1005 7.46014 52.9113 8.7324C52.5502 11.2082 49.4212 12.893 48.785 14.4059C46.5156 12.0849 45.123 10.5032 44.8995 9.02467C44.5557 6.29105 48.4756 4.056 48.785 0.978516C49.49 1.87253 49.6963 3.41987 49.6963 4.31389C50.0401 3.86688 50.2464 3.29953 50.2464 2.73217C50.917 3.52302 51.1233 4.89843 51.1233 5.93C51.4499 5.60334 51.6391 5.15633 51.6563 4.67494Z" fill="#FF2C38"></path><path d="M28.2588 20.7479H37.3438V16.6094H22.7981V36.3956H37.3438V32.306H28.2588V28.584H36.2174V24.47H28.2588V20.7479Z" fill="currentColor"></path><path d="M60.1174 16.6094V20.7479H65.3089V36.3956H70.7696V20.7479H75.9121V16.6094H60.1174Z" fill="currentColor"></path><path d="M93.5679 29.4166C94.9637 28.7799 96.0902 27.7024 96.7757 26.3311C97.4615 24.9598 97.6573 23.3925 97.3389 21.8989C97.0206 20.4051 96.188 19.0583 94.9882 18.1032C93.7883 17.1482 92.319 16.6094 90.7763 16.6094C86.9806 16.6094 83.1851 16.6094 79.3894 16.6094C79.3894 23.319 79.3894 30.0532 79.3894 36.7628C81.2261 36.7628 83.0381 36.7628 84.8747 36.7628C84.8747 34.5101 84.8747 32.2572 84.8747 30.0043C85.7563 30.0043 86.6379 30.0043 87.5194 30.0043C88.8907 32.2572 90.2376 34.5101 91.6089 36.7628C93.7393 36.7628 95.8698 36.7628 98.0002 36.7628C96.5309 34.3141 95.0616 31.8653 93.5679 29.4166ZM91.266 25.1312C90.7763 25.6209 90.1396 25.8903 89.4539 25.8903C87.9357 25.8903 86.4174 25.8903 84.8747 25.8903C84.8747 24.1761 84.8747 22.4621 84.8747 20.7479C86.3929 20.7479 87.9112 20.7479 89.4539 20.7479C90.1396 20.7479 90.8008 21.0173 91.266 21.507C91.7557 21.9967 92.0251 22.6334 92.0251 23.319C92.0251 24.0047 91.7557 24.6415 91.266 25.1312Z" fill="currentColor"></path><path d="M51.473 20.7479H55.4155L57.9133 16.6094H39.5474L42.0451 20.7479H45.9876V36.3956H51.473V20.7479Z" fill="currentColor"></path><path d="M18.1699 35.2695C15.9905 36.2 13.6152 36.7633 11.2154 36.7633C9.55023 36.7633 7.88505 36.4939 6.36682 35.8817C5.43628 35.4898 4.55472 34.9511 3.7956 34.3144C3.01199 33.6533 2.35082 32.8941 1.7876 32.0615C1.22439 31.2289 0.783607 30.2985 0.465266 29.3434C0.146924 28.3885 0 27.3599 0 26.3559C0 24.3234 0.612192 22.3154 1.73863 20.6257C2.86507 18.9361 4.48126 17.6138 6.36682 16.8302C7.32185 16.4383 8.27686 16.1935 9.30535 16.0711C9.81959 15.9976 10.3093 15.9731 10.8236 15.9486C11.3378 15.9241 11.8276 15.9486 12.3418 15.9731C14.3744 16.12 16.3579 16.6343 18.2189 17.4424C17.3618 18.8627 16.5047 20.2829 15.6477 21.6788C14.2764 20.9686 12.7826 20.5767 11.2399 20.5767C9.57471 20.5767 8.0075 21.287 6.90554 22.5358C5.8036 23.7847 5.31384 25.4499 5.50974 27.0905C5.73013 28.7312 6.63618 30.2005 8.0075 31.1311C9.37881 32.0615 11.093 32.3309 12.7091 31.9146C12.7091 29.9066 12.7091 27.8986 12.7091 25.8906C14.5457 25.8906 16.3579 25.8906 18.1944 25.8906C18.1699 29.025 18.1699 32.135 18.1699 35.2695Z" fill="currentColor"></path></g></svg>
